<?xml version="1.0" standalone="no"?>
<!DOCTYPE svg PUBLIC "-//W3C//DTD SVG 20010904//EN"
 "http://www.w3.org/TR/2001/REC-SVG-20010904/DTD/svg10.dtd">
<svg version="1.0" xmlns="http://www.w3.org/2000/svg"
 width="1280.000000pt" height="1280.000000pt" viewBox="0 0 1280.000000 1280.000000"
 preserveAspectRatio="xMidYMid meet">
<g transform="translate(0.000000,1280.000000) scale(0.100000,-0.100000)"
fill="#000000" stroke="none">
<path d="M5286 12692 c-2 -4 -219 -606 -481 -1337 -262 -732 -481 -1334 -486
-1339 -5 -6 -548 88 -1401 242 -766 139 -1400 252 -1409 252 -17 0 -1123
-1906 -1115 -1924 2 -6 374 -447 826 -981 452 -533 867 -1023 921 -1087 l99
-116 -922 -1089 c-507 -598 -922 -1095 -922 -1103 0 -11 1081 -1897 1100
-1919 1 -1 627 110 1391 248 763 138 1398 252 1411 254 22 2 47 -63 506 -1343
l483 -1345 1113 0 1114 0 482 1343 c265 739 483 1345 485 1347 2 2 634 -111
1404 -251 770 -139 1405 -254 1410 -254 9 0 1093 1867 1110 1911 4 12 -263
334 -919 1109 l-926 1092 49 57 c199 231 1794 2118 1798 2127 6 16 -1094 1918
-1112 1922 -8 2 -641 -110 -1405 -248 -765 -139 -1396 -250 -1403 -247 -6 3
-228 608 -492 1346 l-480 1341 -1112 0 c-611 0 -1114 -3 -1117 -8z m1294
-4213 c495 -45 947 -256 1294 -604 324 -324 521 -718 592 -1180 23 -149 23
-442 0 -590 -129 -835 -730 -1510 -1532 -1720 -242 -64 -570 -83 -816 -49
-839 115 -1527 727 -1737 1547 -84 327 -86 697 -6 1018 122 483 392 885 796
1185 394 293 916 438 1409 393z"/>
</g>
</svg>
